<?xml version="1.0" encoding="utf-8" standalone="no"?>
<!DOCTYPE svg PUBLIC "-//W3C//DTD SVG 1.1//EN"
  "http://www.w3.org/Graphics/SVG/1.1/DTD/svg11.dtd">
<!-- Created with matplotlib (http://matplotlib.org/) -->
<svg height="432pt" version="1.1" viewBox="0 0 864 432" width="864pt" xmlns="http://www.w3.org/2000/svg" xmlns:xlink="http://www.w3.org/1999/xlink">
 <defs>
  <style type="text/css">
*{stroke-linecap:butt;stroke-linejoin:round;}
  </style>
 </defs>
 <g id="figure_1">
  <g id="patch_1">
   <path d="
M0 432
L864 432
L864 0
L0 0
z
" style="fill:#ffffff;"/>
  </g>
  <g id="axes_1">
   <g id="patch_2">
    <path d="
M89.0063 390.8
L853.2 390.8
L853.2 22.5
L89.0063 22.5
z
" style="fill:#ffffff;"/>
   </g>
   <g id="matplotlib.axis_1">
    <g id="xtick_1">
     <g id="line2d_1">
      <path clip-path="url(#p6eb0747ae5)" d="
M89.0063 390.8
L89.0063 22.5" style="fill:none;stroke:#cccccc;stroke-linecap:round;"/>
     </g>
     <g id="line2d_2">
      <defs>
       <path d="
M0 0
L0 0" id="m219da94a98" style="stroke:#262626;"/>
      </defs>
      <g>
       <use style="fill:#262626;stroke:#262626;" x="89.00625" xlink:href="#m219da94a98" y="390.8"/>
      </g>
     </g>
     <g id="line2d_3">
      <g>
       <use style="fill:#262626;stroke:#262626;" x="89.00625" xlink:href="#m219da94a98" y="22.5"/>
      </g>
     </g>
     <g id="text_1">
      <!-- 2000 -->
      <defs>
       <path d="
M5.03125 0
L5.03125 6.20312
Q7.51562 11.9219 11.1094 16.2812
Q14.7031 20.6562 18.6562 24.1875
Q22.6094 27.7344 26.4844 30.7656
Q30.375 33.7969 33.5 36.8125
Q36.625 39.8438 38.5469 43.1562
Q40.4844 46.4844 40.4844 50.6875
Q40.4844 53.6094 39.5938 55.8281
Q38.7188 58.0625 37.0625 59.5625
Q35.4062 61.0781 33.0781 61.8281
Q30.7656 62.5938 27.9375 62.5938
Q25.2969 62.5938 22.9688 61.8594
Q20.6562 61.1406 18.8438 59.6719
Q17.0469 58.2031 15.8906 56.0312
Q14.75 53.8594 14.4062 50.9844
L5.42188 51.8125
Q5.85938 55.5156 7.46875 58.7812
Q9.07812 62.0625 11.9062 64.5312
Q14.75 67 18.7188 68.4062
Q22.7031 69.8281 27.9375 69.8281
Q33.0625 69.8281 37.0625 68.6094
Q41.0625 67.3906 43.8125 64.9844
Q46.5781 62.5938 48.0469 59.0781
Q49.5156 55.5625 49.5156 50.9844
Q49.5156 47.5156 48.2656 44.3906
Q47.0156 41.2656 44.9375 38.4219
Q42.875 35.5938 40.1406 32.9531
Q37.4062 30.3281 34.4219 27.8125
Q31.4531 25.2969 28.4219 22.8281
Q25.3906 20.3594 22.7188 17.8594
Q20.0625 15.375 17.9688 12.8125
Q15.875 10.25 14.7031 7.46875
L50.5938 7.46875
L50.5938 0
z
" id="LiberationSans-32"/>
       <path d="
M51.7031 34.4219
Q51.7031 24.5156 49.8281 17.75
Q47.9531 10.9844 44.7031 6.8125
Q41.4531 2.64062 37.0625 0.828125
Q32.6719 -0.984375 27.6875 -0.984375
Q22.6562 -0.984375 18.3125 0.828125
Q13.9688 2.64062 10.7656 6.78125
Q7.5625 10.9375 5.73438 17.7031
Q3.90625 24.4688 3.90625 34.4219
Q3.90625 44.8281 5.73438 51.6406
Q7.5625 58.4531 10.7812 62.5
Q14.0156 66.5469 18.4062 68.1875
Q22.7969 69.8281 27.9844 69.8281
Q32.9062 69.8281 37.2188 68.1875
Q41.5469 66.5469 44.7656 62.5
Q48 58.4531 49.8438 51.6406
Q51.7031 44.8281 51.7031 34.4219
M42.7812 34.4219
Q42.7812 42.625 41.7969 48.0625
Q40.8281 53.5156 38.9219 56.7656
Q37.0156 60.0156 34.25 61.3594
Q31.5 62.7031 27.9844 62.7031
Q24.2656 62.7031 21.4375 61.3281
Q18.6094 59.9688 16.6719 56.7188
Q14.75 53.4688 13.7656 48.0156
Q12.7969 42.5781 12.7969 34.4219
Q12.7969 26.5156 13.7969 21.0938
Q14.7969 15.6719 16.7188 12.375
Q18.6562 9.07812 21.4375 7.64062
Q24.2188 6.20312 27.7812 6.20312
Q31.25 6.20312 34.0312 7.64062
Q36.8125 9.07812 38.7344 12.375
Q40.6719 15.6719 41.7188 21.0938
Q42.7812 26.5156 42.7812 34.4219" id="LiberationSans-30"/>
      </defs>
      <g style="fill:#262626;" transform="translate(62.31875 415.9171875)scale(0.25 -0.25)">
       <use xlink:href="#LiberationSans-32"/>
       <use x="55.615234375" xlink:href="#LiberationSans-30"/>
       <use x="111.23046875" xlink:href="#LiberationSans-30"/>
       <use x="166.845703125" xlink:href="#LiberationSans-30"/>
      </g>
     </g>
    </g>
    <g id="xtick_2">
     <g id="line2d_4">
      <path clip-path="url(#p6eb0747ae5)" d="
M206.575 390.8
L206.575 22.5" style="fill:none;stroke:#cccccc;stroke-linecap:round;"/>
     </g>
     <g id="line2d_5">
      <g>
       <use style="fill:#262626;stroke:#262626;" x="206.574519231" xlink:href="#m219da94a98" y="390.8"/>
      </g>
     </g>
     <g id="line2d_6">
      <g>
       <use style="fill:#262626;stroke:#262626;" x="206.574519231" xlink:href="#m219da94a98" y="22.5"/>
      </g>
     </g>
     <g id="text_2">
      <!-- 2002 -->
      <g style="fill:#262626;" transform="translate(180.025691106 415.9171875)scale(0.25 -0.25)">
       <use xlink:href="#LiberationSans-32"/>
       <use x="55.615234375" xlink:href="#LiberationSans-30"/>
       <use x="111.23046875" xlink:href="#LiberationSans-30"/>
       <use x="166.845703125" xlink:href="#LiberationSans-32"/>
      </g>
     </g>
    </g>
    <g id="xtick_3">
     <g id="line2d_7">
      <path clip-path="url(#p6eb0747ae5)" d="
M324.143 390.8
L324.143 22.5" style="fill:none;stroke:#cccccc;stroke-linecap:round;"/>
     </g>
     <g id="line2d_8">
      <g>
       <use style="fill:#262626;stroke:#262626;" x="324.142788462" xlink:href="#m219da94a98" y="390.8"/>
      </g>
     </g>
     <g id="line2d_9">
      <g>
       <use style="fill:#262626;stroke:#262626;" x="324.142788462" xlink:href="#m219da94a98" y="22.5"/>
      </g>
     </g>
     <g id="text_3">
      <!-- 2004 -->
      <defs>
       <path d="
M43.0156 15.5781
L43.0156 0
L34.7188 0
L34.7188 15.5781
L2.29688 15.5781
L2.29688 22.4062
L33.7969 68.7969
L43.0156 68.7969
L43.0156 22.5156
L52.6875 22.5156
L52.6875 15.5781
z

M34.7188 58.8906
Q34.625 58.6406 34.2344 57.9375
Q33.8438 57.2344 33.3438 56.3438
Q32.8594 55.4688 32.3438 54.5625
Q31.8438 53.6562 31.4531 53.0781
L13.8125 27.0938
Q13.5781 26.7031 13.1094 26.0625
Q12.6406 25.4375 12.1562 24.7812
Q11.6719 24.125 11.1719 23.4844
Q10.6875 22.8594 10.4062 22.5156
L34.7188 22.5156
z
" id="LiberationSans-34"/>
      </defs>
      <g style="fill:#262626;" transform="translate(297.332241587 415.9171875)scale(0.25 -0.25)">
       <use xlink:href="#LiberationSans-32"/>
       <use x="55.615234375" xlink:href="#LiberationSans-30"/>
       <use x="111.23046875" xlink:href="#LiberationSans-30"/>
       <use x="166.845703125" xlink:href="#LiberationSans-34"/>
      </g>
     </g>
    </g>
    <g id="xtick_4">
     <g id="line2d_10">
      <path clip-path="url(#p6eb0747ae5)" d="
M441.711 390.8
L441.711 22.5" style="fill:none;stroke:#cccccc;stroke-linecap:round;"/>
     </g>
     <g id="line2d_11">
      <g>
       <use style="fill:#262626;stroke:#262626;" x="441.711057692" xlink:href="#m219da94a98" y="390.8"/>
      </g>
     </g>
     <g id="line2d_12">
      <g>
       <use style="fill:#262626;stroke:#262626;" x="441.711057692" xlink:href="#m219da94a98" y="22.5"/>
      </g>
     </g>
     <g id="text_4">
      <!-- 2006 -->
      <defs>
       <path d="
M51.2188 22.5156
Q51.2188 17.3281 49.7812 13
Q48.3438 8.6875 45.5312 5.57812
Q42.7188 2.48438 38.5625 0.75
Q34.4219 -0.984375 29 -0.984375
Q23 -0.984375 18.5 1.3125
Q14.0156 3.60938 11.0312 7.92188
Q8.0625 12.25 6.5625 18.5312
Q5.07812 24.8125 5.07812 32.8125
Q5.07812 42 6.76562 48.9219
Q8.45312 55.8594 11.625 60.5
Q14.7969 65.1406 19.3594 67.4844
Q23.9219 69.8281 29.6875 69.8281
Q33.2031 69.8281 36.2812 69.0938
Q39.3594 68.3594 41.875 66.7188
Q44.3906 65.0938 46.2812 62.4062
Q48.1875 59.7188 49.3125 55.8125
L40.9219 54.2969
Q39.5469 58.7344 36.5469 60.7188
Q33.5469 62.7031 29.5938 62.7031
Q25.9844 62.7031 23.0469 60.9844
Q20.125 59.2812 18.0625 55.875
Q16.0156 52.4844 14.9062 47.3594
Q13.8125 42.2344 13.8125 35.4062
Q16.2188 39.8438 20.5625 42.1562
Q24.9062 44.4844 30.5156 44.4844
Q35.2031 44.4844 39.0156 42.9688
Q42.8281 41.4531 45.5312 38.5938
Q48.25 35.75 49.7344 31.6719
Q51.2188 27.5938 51.2188 22.5156
M42.2812 22.125
Q42.2812 25.6875 41.4062 28.5625
Q40.5312 31.4531 38.7656 33.4688
Q37.0156 35.5 34.4219 36.5938
Q31.8438 37.7031 28.4219 37.7031
Q26.0312 37.7031 23.5781 36.9844
Q21.1406 36.2812 19.1562 34.6875
Q17.1875 33.1094 15.9375 30.5156
Q14.7031 27.9375 14.7031 24.2188
Q14.7031 20.4062 15.6719 17.1094
Q16.6562 13.8125 18.4844 11.375
Q20.3125 8.9375 22.8906 7.51562
Q25.4844 6.10938 28.7188 6.10938
Q31.8906 6.10938 34.4062 7.20312
Q36.9219 8.29688 38.6719 10.375
Q40.4375 12.4531 41.3594 15.4219
Q42.2812 18.4062 42.2812 22.125" id="LiberationSans-36"/>
      </defs>
      <g style="fill:#262626;" transform="translate(415.084104567 415.9171875)scale(0.25 -0.25)">
       <use xlink:href="#LiberationSans-32"/>
       <use x="55.615234375" xlink:href="#LiberationSans-30"/>
       <use x="111.23046875" xlink:href="#LiberationSans-30"/>
       <use x="166.845703125" xlink:href="#LiberationSans-36"/>
      </g>
     </g>
    </g>
    <g id="xtick_5">
     <g id="line2d_13">
      <path clip-path="url(#p6eb0747ae5)" d="
M559.279 390.8
L559.279 22.5" style="fill:none;stroke:#cccccc;stroke-linecap:round;"/>
     </g>
     <g id="line2d_14">
      <g>
       <use style="fill:#262626;stroke:#262626;" x="559.279326923" xlink:href="#m219da94a98" y="390.8"/>
      </g>
     </g>
     <g id="line2d_15">
      <g>
       <use style="fill:#262626;stroke:#262626;" x="559.279326923" xlink:href="#m219da94a98" y="22.5"/>
      </g>
     </g>
     <g id="text_5">
      <!-- 2008 -->
      <defs>
       <path d="
M51.2656 19.1875
Q51.2656 14.7969 49.875 11.1094
Q48.4844 7.42188 45.625 4.73438
Q42.7812 2.04688 38.3281 0.53125
Q33.8906 -0.984375 27.8281 -0.984375
Q21.7812 -0.984375 17.3594 0.53125
Q12.9375 2.04688 10.0312 4.70312
Q7.125 7.375 5.73438 11.0625
Q4.34375 14.75 4.34375 19.0938
Q4.34375 22.8594 5.48438 25.7812
Q6.64062 28.7188 8.5625 30.8281
Q10.5 32.9531 12.9688 34.25
Q15.4375 35.5469 18.0625 35.9844
L18.0625 36.1875
Q15.1875 36.8594 12.9062 38.375
Q10.6406 39.8906 9.09375 42.0156
Q7.5625 44.1406 6.75 46.7188
Q5.95312 49.3125 5.95312 52.2031
Q5.95312 55.8125 7.34375 59
Q8.73438 62.2031 11.4688 64.625
Q14.2031 67.0469 18.25 68.4375
Q22.3125 69.8281 27.6406 69.8281
Q33.25 69.8281 37.375 68.4062
Q41.5 67 44.2031 64.5781
Q46.9219 62.1562 48.2344 58.9375
Q49.5625 55.7188 49.5625 52.0938
Q49.5625 49.2656 48.75 46.6719
Q47.9531 44.0938 46.4062 41.9688
Q44.875 39.8438 42.5938 38.3438
Q40.3281 36.8594 37.3594 36.2812
L37.3594 36.0781
Q40.3281 35.5938 42.8594 34.2969
Q45.4062 33.0156 47.2656 30.8906
Q49.125 28.7656 50.1875 25.8281
Q51.2656 22.9062 51.2656 19.1875
M40.4375 51.6094
Q40.4375 54.2031 39.7656 56.3438
Q39.1094 58.5 37.5938 60.0312
Q36.0781 61.5781 33.6406 62.4219
Q31.2031 63.2812 27.6406 63.2812
Q24.1719 63.2812 21.7812 62.4219
Q19.3906 61.5781 17.8438 60.0312
Q16.3125 58.5 15.625 56.3438
Q14.9375 54.2031 14.9375 51.6094
Q14.9375 49.5625 15.4688 47.4062
Q16.0156 45.2656 17.4219 43.5
Q18.8438 41.75 21.3281 40.625
Q23.8281 39.5 27.7344 39.5
Q31.8906 39.5 34.4062 40.625
Q36.9219 41.75 38.25 43.5
Q39.5938 45.2656 40.0156 47.4062
Q40.4375 49.5625 40.4375 51.6094
M42.1406 20.0156
Q42.1406 22.5156 41.4531 24.8281
Q40.7656 27.1562 39.1094 28.9375
Q37.4531 30.7188 34.6406 31.8125
Q31.8438 32.9062 27.6406 32.9062
Q23.7812 32.9062 21.0625 31.8125
Q18.3594 30.7188 16.6719 28.9062
Q14.9844 27.0938 14.2031 24.7188
Q13.4219 22.3594 13.4219 19.8281
Q13.4219 16.6562 14.2031 14.0312
Q14.9844 11.4219 16.6875 9.54688
Q18.4062 7.67188 21.1875 6.64062
Q23.9688 5.60938 27.9375 5.60938
Q31.9375 5.60938 34.6719 6.64062
Q37.4062 7.67188 39.0625 9.54688
Q40.7188 11.4219 41.4219 14.0781
Q42.1406 16.75 42.1406 20.0156" id="LiberationSans-38"/>
      </defs>
      <g style="fill:#262626;" transform="translate(532.646514423 415.9171875)scale(0.25 -0.25)">
       <use xlink:href="#LiberationSans-32"/>
       <use x="55.615234375" xlink:href="#LiberationSans-30"/>
       <use x="111.23046875" xlink:href="#LiberationSans-30"/>
       <use x="166.845703125" xlink:href="#LiberationSans-38"/>
      </g>
     </g>
    </g>
    <g id="xtick_6">
     <g id="line2d_16">
      <path clip-path="url(#p6eb0747ae5)" d="
M676.848 390.8
L676.848 22.5" style="fill:none;stroke:#cccccc;stroke-linecap:round;"/>
     </g>
     <g id="line2d_17">
      <g>
       <use style="fill:#262626;stroke:#262626;" x="676.847596154" xlink:href="#m219da94a98" y="390.8"/>
      </g>
     </g>
     <g id="line2d_18">
      <g>
       <use style="fill:#262626;stroke:#262626;" x="676.847596154" xlink:href="#m219da94a98" y="22.5"/>
      </g>
     </g>
     <g id="text_6">
      <!-- 2010 -->
      <defs>
       <path d="
M7.625 0
L7.625 7.46875
L25.1406 7.46875
L25.1406 60.4062
L9.625 49.3125
L9.625 57.625
L25.875 68.7969
L33.9844 68.7969
L33.9844 7.46875
L50.7344 7.46875
L50.7344 0
z
" id="LiberationSans-31"/>
      </defs>
      <g style="fill:#262626;" transform="translate(650.160096154 415.9171875)scale(0.25 -0.25)">
       <use xlink:href="#LiberationSans-32"/>
       <use x="55.615234375" xlink:href="#LiberationSans-30"/>
       <use x="111.23046875" xlink:href="#LiberationSans-31"/>
       <use x="166.845703125" xlink:href="#LiberationSans-30"/>
      </g>
     </g>
    </g>
    <g id="xtick_7">
     <g id="line2d_19">
      <path clip-path="url(#p6eb0747ae5)" d="
M794.416 390.8
L794.416 22.5" style="fill:none;stroke:#cccccc;stroke-linecap:round;"/>
     </g>
     <g id="line2d_20">
      <g>
       <use style="fill:#262626;stroke:#262626;" x="794.415865385" xlink:href="#m219da94a98" y="390.8"/>
      </g>
     </g>
     <g id="line2d_21">
      <g>
       <use style="fill:#262626;stroke:#262626;" x="794.415865385" xlink:href="#m219da94a98" y="22.5"/>
      </g>
     </g>
     <g id="text_7">
      <!-- 2012 -->
      <g style="fill:#262626;" transform="translate(767.86703726 415.9171875)scale(0.25 -0.25)">
       <use xlink:href="#LiberationSans-32"/>
       <use x="55.615234375" xlink:href="#LiberationSans-30"/>
       <use x="111.23046875" xlink:href="#LiberationSans-31"/>
       <use x="166.845703125" xlink:href="#LiberationSans-32"/>
      </g>
     </g>
    </g>
   </g>
   <g id="matplotlib.axis_2">
    <g id="ytick_1">
     <g id="line2d_22">
      <path clip-path="url(#p6eb0747ae5)" d="
M89.0063 390.8
L853.2 390.8" style="fill:none;stroke:#cccccc;stroke-linecap:round;"/>
     </g>
     <g id="line2d_23">
      <g>
       <use style="fill:#262626;stroke:#262626;" x="89.00625" xlink:href="#m219da94a98" y="390.8"/>
      </g>
     </g>
     <g id="line2d_24">
      <g>
       <use style="fill:#262626;stroke:#262626;" x="853.2" xlink:href="#m219da94a98" y="390.8"/>
      </g>
     </g>
     <g id="text_8">
      <!-- 70 -->
      <defs>
       <path d="
M50.5938 61.6719
Q45.4062 53.7656 41.0625 46.4531
Q36.7188 39.1562 33.5938 31.75
Q30.4688 24.3594 28.7344 16.5781
Q27 8.79688 27 0
L17.8281 0
Q17.8281 8.25 19.7812 16.1875
Q21.7344 24.125 25.0469 31.7656
Q28.375 39.4062 32.7656 46.7812
Q37.1562 54.1562 42.0938 61.3281
L5.125 61.3281
L5.125 68.7969
L50.5938 68.7969
z
" id="LiberationSans-37"/>
      </defs>
      <g style="fill:#262626;" transform="translate(56.459375 397.26484375)scale(0.25 -0.25)">
       <use xlink:href="#LiberationSans-37"/>
       <use x="55.615234375" xlink:href="#LiberationSans-30"/>
      </g>
     </g>
    </g>
    <g id="ytick_2">
     <g id="line2d_25">
      <path clip-path="url(#p6eb0747ae5)" d="
M89.0063 338.186
L853.2 338.186" style="fill:none;stroke:#cccccc;stroke-linecap:round;"/>
     </g>
     <g id="line2d_26">
      <g>
       <use style="fill:#262626;stroke:#262626;" x="89.00625" xlink:href="#m219da94a98" y="338.185714286"/>
      </g>
     </g>
     <g id="line2d_27">
      <g>
       <use style="fill:#262626;stroke:#262626;" x="853.2" xlink:href="#m219da94a98" y="338.185714286"/>
      </g>
     </g>
     <g id="text_9">
      <!-- 75 -->
      <defs>
       <path d="
M51.4219 22.4062
Q51.4219 17.2344 49.8594 12.9375
Q48.2969 8.64062 45.2188 5.53125
Q42.1406 2.4375 37.5781 0.71875
Q33.0156 -0.984375 27 -0.984375
Q21.5781 -0.984375 17.5469 0.28125
Q13.5312 1.5625 10.7344 3.78125
Q7.95312 6 6.3125 8.98438
Q4.6875 11.9688 4 15.375
L12.8906 16.4062
Q13.4219 14.4531 14.3906 12.625
Q15.375 10.7969 17.0625 9.34375
Q18.75 7.90625 21.2188 7.04688
Q23.6875 6.20312 27.2031 6.20312
Q30.6094 6.20312 33.3906 7.25
Q36.1875 8.29688 38.1562 10.3438
Q40.1406 12.4062 41.2031 15.375
Q42.2812 18.3594 42.2812 22.2188
Q42.2812 25.3906 41.25 28.0469
Q40.2344 30.7188 38.3281 32.6406
Q36.4219 34.5781 33.6562 35.6406
Q30.9062 36.7188 27.3906 36.7188
Q25.2031 36.7188 23.3438 36.3281
Q21.4844 35.9375 19.8906 35.25
Q18.3125 34.5781 17.0156 33.6719
Q15.7188 32.7656 14.5938 31.7812
L6 31.7812
L8.29688 68.7969
L47.4062 68.7969
L47.4062 61.3281
L16.3125 61.3281
L14.9844 39.5
Q17.3281 41.3125 20.8438 42.5938
Q24.3594 43.8906 29.2031 43.8906
Q34.3281 43.8906 38.4219 42.3281
Q42.5312 40.7656 45.4062 37.9062
Q48.2969 35.0625 49.8594 31.1094
Q51.4219 27.1562 51.4219 22.4062" id="LiberationSans-35"/>
      </defs>
      <g style="fill:#262626;" transform="translate(56.5296875 344.650558036)scale(0.25 -0.25)">
       <use xlink:href="#LiberationSans-37"/>
       <use x="55.615234375" xlink:href="#LiberationSans-35"/>
      </g>
     </g>
    </g>
    <g id="ytick_3">
     <g id="line2d_28">
      <path clip-path="url(#p6eb0747ae5)" d="
M89.0063 285.571
L853.2 285.571" style="fill:none;stroke:#cccccc;stroke-linecap:round;"/>
     </g>
     <g id="line2d_29">
      <g>
       <use style="fill:#262626;stroke:#262626;" x="89.00625" xlink:href="#m219da94a98" y="285.571428571"/>
      </g>
     </g>
     <g id="line2d_30">
      <g>
       <use style="fill:#262626;stroke:#262626;" x="853.2" xlink:href="#m219da94a98" y="285.571428571"/>
      </g>
     </g>
     <g id="text_10">
      <!-- 80 -->
      <g style="fill:#262626;" transform="translate(56.2640625 292.036272321)scale(0.25 -0.25)">
       <use xlink:href="#LiberationSans-38"/>
       <use x="55.615234375" xlink:href="#LiberationSans-30"/>
      </g>
     </g>
    </g>
    <g id="ytick_4">
     <g id="line2d_31">
      <path clip-path="url(#p6eb0747ae5)" d="
M89.0063 232.957
L853.2 232.957" style="fill:none;stroke:#cccccc;stroke-linecap:round;"/>
     </g>
     <g id="line2d_32">
      <g>
       <use style="fill:#262626;stroke:#262626;" x="89.00625" xlink:href="#m219da94a98" y="232.957142857"/>
      </g>
     </g>
     <g id="line2d_33">
      <g>
       <use style="fill:#262626;stroke:#262626;" x="853.2" xlink:href="#m219da94a98" y="232.957142857"/>
      </g>
     </g>
     <g id="text_11">
      <!-- 85 -->
      <g style="fill:#262626;" transform="translate(56.334375 239.421986607)scale(0.25 -0.25)">
       <use xlink:href="#LiberationSans-38"/>
       <use x="55.615234375" xlink:href="#LiberationSans-35"/>
      </g>
     </g>
    </g>
    <g id="ytick_5">
     <g id="line2d_34">
      <path clip-path="url(#p6eb0747ae5)" d="
M89.0063 180.343
L853.2 180.343" style="fill:none;stroke:#cccccc;stroke-linecap:round;"/>
     </g>
     <g id="line2d_35">
      <g>
       <use style="fill:#262626;stroke:#262626;" x="89.00625" xlink:href="#m219da94a98" y="180.342857143"/>
      </g>
     </g>
     <g id="line2d_36">
      <g>
       <use style="fill:#262626;stroke:#262626;" x="853.2" xlink:href="#m219da94a98" y="180.342857143"/>
      </g>
     </g>
     <g id="text_12">
      <!-- 90 -->
      <defs>
       <path d="
M50.875 35.7969
Q50.875 26.6094 49.1406 19.7031
Q47.4062 12.7969 44.1875 8.20312
Q40.9688 3.60938 36.3438 1.3125
Q31.7344 -0.984375 25.9844 -0.984375
Q22.0156 -0.984375 18.8438 -0.171875
Q15.6719 0.640625 13.1719 2.34375
Q10.6875 4.04688 8.92188 6.78125
Q7.17188 9.51562 6.10938 13.375
L14.5 14.7031
Q15.875 10.25 18.7812 8.17188
Q21.6875 6.10938 26.125 6.10938
Q29.6875 6.10938 32.6406 7.78125
Q35.5938 9.46875 37.6719 12.8438
Q39.75 16.2188 40.9219 21.2969
Q42.0938 26.375 42.1875 33.2031
Q41.1562 30.9062 39.375 29.0938
Q37.5938 27.2969 35.3281 26.0469
Q33.0625 24.8125 30.4219 24.1406
Q27.7812 23.4844 25.0938 23.4844
Q20.4062 23.4844 16.625 25.1719
Q12.8438 26.8594 10.2031 29.875
Q7.5625 32.9062 6.125 37.1719
Q4.6875 41.4531 4.6875 46.6875
Q4.6875 52 6.21875 56.2969
Q7.76562 60.5938 10.6875 63.5938
Q13.625 66.6094 17.8906 68.2188
Q22.1719 69.8281 27.5938 69.8281
Q39.0625 69.8281 44.9688 61.3281
Q50.875 52.8281 50.875 35.7969
M41.3125 44.2812
Q41.3125 48.0938 40.4062 51.4531
Q39.5 54.8281 37.7188 57.3125
Q35.9375 59.8125 33.3281 61.25
Q30.7188 62.7031 27.2969 62.7031
Q24.125 62.7031 21.5781 61.5781
Q19.0469 60.4531 17.2812 58.375
Q15.5312 56.2969 14.5781 53.3125
Q13.625 50.3438 13.625 46.6875
Q13.625 43.2188 14.4688 40.2344
Q15.3281 37.25 17.0312 35.0781
Q18.75 32.9062 21.2812 31.6562
Q23.8281 30.4219 27.2031 30.4219
Q29.6406 30.4219 32.1562 31.25
Q34.6719 32.0781 36.6875 33.7812
Q38.7188 35.5 40.0156 38.1094
Q41.3125 40.7188 41.3125 44.2812" id="LiberationSans-39"/>
      </defs>
      <g style="fill:#262626;" transform="translate(56.35 186.807700893)scale(0.25 -0.25)">
       <use xlink:href="#LiberationSans-39"/>
       <use x="55.615234375" xlink:href="#LiberationSans-30"/>
      </g>
     </g>
    </g>
    <g id="ytick_6">
     <g id="line2d_37">
      <path clip-path="url(#p6eb0747ae5)" d="
M89.0063 127.729
L853.2 127.729" style="fill:none;stroke:#cccccc;stroke-linecap:round;"/>
     </g>
     <g id="line2d_38">
      <g>
       <use style="fill:#262626;stroke:#262626;" x="89.00625" xlink:href="#m219da94a98" y="127.728571429"/>
      </g>
     </g>
     <g id="line2d_39">
      <g>
       <use style="fill:#262626;stroke:#262626;" x="853.2" xlink:href="#m219da94a98" y="127.728571429"/>
      </g>
     </g>
     <g id="text_13">
      <!-- 95 -->
      <g style="fill:#262626;" transform="translate(56.4203125 134.193415179)scale(0.25 -0.25)">
       <use xlink:href="#LiberationSans-39"/>
       <use x="55.615234375" xlink:href="#LiberationSans-35"/>
      </g>
     </g>
    </g>
    <g id="ytick_7">
     <g id="line2d_40">
      <path clip-path="url(#p6eb0747ae5)" d="
M89.0063 75.1143
L853.2 75.1143" style="fill:none;stroke:#cccccc;stroke-linecap:round;"/>
     </g>
     <g id="line2d_41">
      <g>
       <use style="fill:#262626;stroke:#262626;" x="89.00625" xlink:href="#m219da94a98" y="75.1142857143"/>
      </g>
     </g>
     <g id="line2d_42">
      <g>
       <use style="fill:#262626;stroke:#262626;" x="853.2" xlink:href="#m219da94a98" y="75.1142857143"/>
      </g>
     </g>
     <g id="text_14">
      <!-- 100 -->
      <g style="fill:#262626;" transform="translate(43.18203125 81.5791294643)scale(0.25 -0.25)">
       <use xlink:href="#LiberationSans-31"/>
       <use x="55.615234375" xlink:href="#LiberationSans-30"/>
       <use x="111.23046875" xlink:href="#LiberationSans-30"/>
      </g>
     </g>
    </g>
    <g id="ytick_8">
     <g id="line2d_43">
      <path clip-path="url(#p6eb0747ae5)" d="
M89.0063 22.5
L853.2 22.5" style="fill:none;stroke:#cccccc;stroke-linecap:round;"/>
     </g>
     <g id="line2d_44">
      <g>
       <use style="fill:#262626;stroke:#262626;" x="89.00625" xlink:href="#m219da94a98" y="22.5"/>
      </g>
     </g>
     <g id="line2d_45">
      <g>
       <use style="fill:#262626;stroke:#262626;" x="853.2" xlink:href="#m219da94a98" y="22.5"/>
      </g>
     </g>
     <g id="text_15">
      <!-- 105 -->
      <g style="fill:#262626;" transform="translate(43.25234375 28.96484375)scale(0.25 -0.25)">
       <use xlink:href="#LiberationSans-31"/>
       <use x="55.615234375" xlink:href="#LiberationSans-30"/>
       <use x="111.23046875" xlink:href="#LiberationSans-35"/>
      </g>
     </g>
    </g>
    <g id="text_16">
     <!-- 价值(元) -->
     <defs>
      <path d="
M23.8281 10.1562
Q23.8281 -3.51562 24.2188 -8.20312
L18.3594 -10.1562
Q18.75 3.90625 18.75 8.59375
L18.75 47.2656
Q11.7188 35.9375 5.07812 28.9062
L3.90625 29.6875
Q11.3281 41.0156 17.1875 55.0781
Q23.0469 69.1406 26.1719 81.25
L34.375 76.1719
L30.4688 73.8281
Q24.2188 59.375 22.2656 54.2969
L26.9531 51.5625
L23.8281 49.2188
z

M44.9219 50.3906
L44.9219 38.6719
L75 38.6719
L75 50.3906
z

M44.9219 36.3281
L44.9219 24.6094
L75 24.6094
L75 36.3281
z

M44.9219 22.2656
L44.9219 10.5469
L75 10.5469
L75 22.2656
z

M44.9219 8.20312
L44.9219 -3.51562
L75 -3.51562
L75 8.20312
z

M55.4688 66.4062
Q55.8594 75.3906 55.4688 81.6406
L64.4531 77.3438
L61.3281 75
L60.9375 66.4062
L78.5156 66.4062
L83.5938 71.4844
L91.0156 64.0625
L60.9375 64.0625
L60.5469 52.7344
L74.2188 52.7344
L77.7344 56.6406
L83.5938 51.5625
L80.0781 49.2188
L80.0781 -3.51562
L83.5938 -3.51562
L88.6719 1.5625
L96.0938 -5.85938
L38.2812 -5.85938
Q33.2031 -5.85938 28.9062 -7.03125
L25.3906 -3.51562
L39.8438 -3.51562
L39.8438 39.8438
Q39.8438 44.5312 39.4531 55.8594
L44.9219 52.7344
L55.0781 52.7344
L55.4688 64.0625
L43.75 64.0625
Q38.6719 64.0625 34.375 62.8906
L30.8594 66.4062
z
" id="SimSun-503c"/>
      <path d="
M65.2344 76.1719
L61.7188 73.8281
Q67.9688 62.8906 76.5625 55.6562
Q85.1562 48.4375 95.7031 46.0938
L95.7031 44.9219
Q89.8438 44.1406 88.2812 40.2344
Q69.9219 51.1719 60.5469 71.875
Q53.9062 59.375 46.2812 51.3594
Q38.6719 43.3594 29.6875 37.5
L28.9062 38.6719
Q37.5 45.3125 45.3125 56.8281
Q53.125 68.3594 57.0312 81.25
z

M52.7344 39.8438
Q52.7344 25 51.1719 16.9844
Q49.6094 8.98438 44.9219 3.125
Q40.2344 -2.73438 29.2969 -8.59375
L28.5156 -7.42188
Q36.7188 -1.5625 40.2344 3.51562
Q43.75 8.59375 45.5 15.2344
Q47.2656 21.875 47.2656 46.875
L56.25 42.5781
z

M68.75 -10.9375
Q69.1406 -1.5625 69.1406 6.25
L69.1406 30.4688
Q69.1406 39.4531 68.75 47.2656
L77.7344 42.9688
L74.2188 39.8438
L74.2188 8.20312
Q74.2188 0.78125 74.6094 -7.8125
z

M20.7031 50.7812
Q11.7188 37.1094 5.46875 31.6406
L4.29688 32.8125
Q7.8125 37.1094 11.7188 43.3594
Q15.625 49.6094 19.5312 58.7812
Q23.4375 67.9688 26.9531 81.25
L35.5469 76.1719
L32.0312 73.8281
Q29.6875 69.1406 23.0469 54.6875
L28.5156 51.5625
L26.1719 49.2188
L26.1719 12.5
Q26.1719 1.95312 26.5625 -6.64062
L19.9219 -9.76562
Q20.7031 2.34375 20.7031 12.1094
z
" id="SimSun-4ef7"/>
      <path d="
M4.29688 78.5156
L6.25 80.4688
Q17.1875 70.3125 22.6562 59.1719
Q28.125 48.0469 28.125 35.9375
Q28.125 23.4375 22.6562 12.2969
Q17.1875 1.17188 6.25 -8.59375
L4.29688 -6.64062
Q13.2812 2.73438 17.7656 13.2812
Q22.2656 23.8281 22.2656 35.9375
Q22.2656 47.6562 17.7656 58.3906
Q13.2812 69.1406 4.29688 78.5156" id="SimSun-29"/>
      <path d="
M8.20312 47.2656
L78.125 47.2656
L83.9844 53.125
L92.1875 44.9219
L62.5 44.9219
L62.5 7.03125
Q62.5 -0.390625 71.0938 0.390625
L80.0781 0.390625
Q85.9375 0.390625 86.9062 6.25
Q87.8906 12.1094 88.6719 21.875
L90.625 21.875
Q90.625 10.9375 91.4062 6.64062
Q92.1875 2.34375 95.7031 1.17188
Q91.7969 -4.6875 84.375 -4.6875
L67.5781 -4.6875
Q56.6406 -5.07812 56.6406 3.90625
L56.6406 44.9219
L42.5781 44.9219
Q40.625 19.5312 32.6094 8.78125
Q24.6094 -1.95312 5.46875 -9.76562
L4.6875 -8.59375
Q24.6094 3.125 30.0781 15.625
Q35.5469 28.125 36.3281 44.9219
L21.0938 44.9219
Q16.0156 44.9219 11.7188 43.75
z

M19.5312 72.2656
L70.3125 72.2656
L75.7812 77.7344
L83.5938 69.9219
L31.6406 69.9219
Q26.5625 69.9219 23.0469 68.75
z
" id="SimSun-5143"/>
      <path d="
M45.3125 78.5156
Q36.3281 69.1406 31.8281 58.3906
Q27.3438 47.6562 27.3438 35.9375
Q27.3438 23.8281 31.8281 13.2812
Q36.3281 2.73438 45.3125 -6.64062
L43.3594 -8.59375
Q32.4219 1.17188 26.9531 12.2969
Q21.4844 23.4375 21.4844 35.9375
Q21.4844 48.0469 26.9531 59.1719
Q32.4219 70.3125 43.3594 80.4688
z
" id="SimSun-28"/>
     </defs>
     <g style="fill:#262626;" transform="translate(34.31484375 262.72421875)rotate(-90.0)scale(0.3 -0.3)">
      <use xlink:href="#SimSun-4ef7"/>
      <use x="100.0" xlink:href="#SimSun-503c"/>
      <use x="200.0" xlink:href="#SimSun-28"/>
      <use x="250.0" xlink:href="#SimSun-5143"/>
      <use x="350.0" xlink:href="#SimSun-29"/>
     </g>
    </g>
   </g>
   <g id="PathCollection_1">
    <defs>
     <path d="
M0 6.12372
C1.62403 6.12372 3.18176 5.47849 4.33013 4.33013
C5.47849 3.18176 6.12372 1.62403 6.12372 0
C6.12372 -1.62403 5.47849 -3.18176 4.33013 -4.33013
C3.18176 -5.47849 1.62403 -6.12372 0 -6.12372
C-1.62403 -6.12372 -3.18176 -5.47849 -4.33013 -4.33013
C-5.47849 -3.18176 -6.12372 -1.62403 -6.12372 0
C-6.12372 1.62403 -5.47849 3.18176 -4.33013 4.33013
C-3.18176 5.47849 -1.62403 6.12372 0 6.12372
z
" id="m484f9f5bff" style="stroke:#000000;stroke-opacity:0.8;stroke-width:0.3;"/>
    </defs>
    <g clip-path="url(#p6eb0747ae5)">
     <use style="fill:#0000ff;fill-opacity:0.8;stroke:#000000;stroke-opacity:0.8;stroke-width:0.3;" x="89.00625" xlink:href="#m484f9f5bff" y="75.1142857143"/>
     <use style="fill:#0000ff;fill-opacity:0.8;stroke:#000000;stroke-opacity:0.8;stroke-width:0.3;" x="147.790384615" xlink:href="#m484f9f5bff" y="82.3382151018"/>
     <use style="fill:#0000ff;fill-opacity:0.8;stroke:#000000;stroke-opacity:0.8;stroke-width:0.3;" x="206.574519231" xlink:href="#m484f9f5bff" y="73.9005767232"/>
     <use style="fill:#0000ff;fill-opacity:0.8;stroke:#000000;stroke-opacity:0.8;stroke-width:0.3;" x="265.358653846" xlink:href="#m484f9f5bff" y="86.387918879"/>
     <use style="fill:#0000ff;fill-opacity:0.8;stroke:#000000;stroke-opacity:0.8;stroke-width:0.3;" x="324.142788462" xlink:href="#m484f9f5bff" y="125.443001301"/>
     <use style="fill:#0000ff;fill-opacity:0.8;stroke:#000000;stroke-opacity:0.8;stroke-width:0.3;" x="382.926923077" xlink:href="#m484f9f5bff" y="143.14999999"/>
     <use style="fill:#0000ff;fill-opacity:0.8;stroke:#000000;stroke-opacity:0.8;stroke-width:0.3;" x="441.711057692" xlink:href="#m484f9f5bff" y="157.777919271"/>
     <use style="fill:#0000ff;fill-opacity:0.8;stroke:#000000;stroke-opacity:0.8;stroke-width:0.3;" x="500.495192308" xlink:href="#m484f9f5bff" y="202.173095659"/>
     <use style="fill:#0000ff;fill-opacity:0.8;stroke:#000000;stroke-opacity:0.8;stroke-width:0.3;" x="559.279326923" xlink:href="#m484f9f5bff" y="253.682762575"/>
     <use style="fill:#0000ff;fill-opacity:0.8;stroke:#000000;stroke-opacity:0.8;stroke-width:0.3;" x="618.063461538" xlink:href="#m484f9f5bff" y="247.453949941"/>
     <use style="fill:#0000ff;fill-opacity:0.8;stroke:#000000;stroke-opacity:0.8;stroke-width:0.3;" x="676.847596154" xlink:href="#m484f9f5bff" y="275.521619105"/>
     <use style="fill:#0000ff;fill-opacity:0.8;stroke:#000000;stroke-opacity:0.8;stroke-width:0.3;" x="735.631730769" xlink:href="#m484f9f5bff" y="319.095575216"/>
     <use style="fill:#0000ff;fill-opacity:0.8;stroke:#000000;stroke-opacity:0.8;stroke-width:0.3;" x="794.415865385" xlink:href="#m484f9f5bff" y="339.592513062"/>
     <use style="fill:#0000ff;fill-opacity:0.8;stroke:#000000;stroke-opacity:0.8;stroke-width:0.3;" x="853.2" xlink:href="#m484f9f5bff" y="359.592333357"/>
    </g>
   </g>
   <g id="line2d_46">
    <path clip-path="url(#p6eb0747ae5)" d="
M89.0063 75.1143
L147.79 82.3382
L206.575 73.9006
L265.359 86.3879
L324.143 125.443
L382.927 143.15
L441.711 157.778
L500.495 202.173
L559.279 253.683
L618.063 247.454
L676.848 275.522
L735.632 319.096
L794.416 339.593
L853.2 359.592" style="fill:none;stroke:#4c72b0;stroke-linecap:round;stroke-width:5;"/>
   </g>
   <g id="patch_3">
    <path d="
M89.0063 22.5
L853.2 22.5" style="fill:none;stroke:#cccccc;stroke-linecap:square;stroke-linejoin:miter;"/>
   </g>
   <g id="patch_4">
    <path d="
M853.2 390.8
L853.2 22.5" style="fill:none;stroke:#cccccc;stroke-linecap:square;stroke-linejoin:miter;"/>
   </g>
   <g id="patch_5">
    <path d="
M89.0063 390.8
L853.2 390.8" style="fill:none;stroke:#cccccc;stroke-linecap:square;stroke-linejoin:miter;"/>
   </g>
   <g id="patch_6">
    <path d="
M89.0063 390.8
L89.0063 22.5" style="fill:none;stroke:#cccccc;stroke-linecap:square;stroke-linejoin:miter;"/>
   </g>
  </g>
 </g>
 <defs>
  <clipPath id="p6eb0747ae5">
   <rect height="368.3" width="764.19375" x="89.00625" y="22.5"/>
  </clipPath>
 </defs>
</svg>
